<svg id="Laag_1" data-name="Laag 1" xmlns="http://www.w3.org/2000/svg" viewBox="0 0 45.95 43.03"><defs><style>.cls-1{fill:#d85b4b;}.cls-1,.cls-2{stroke:#d85b4b;stroke-miterlimit:10;}.cls-2{fill:none;stroke-width:3px;}.cls-3{fill:#fff;}</style></defs><title>heart</title><path id="rood_hartje" data-name="rood hartje" class="cls-1" d="M23,8.55a11.25,11.25,0,0,1,10.3-7c6.21,0,10.67,5.31,11.24,11.63a11.62,11.62,0,0,1-.37,4.4,19.44,19.44,0,0,1-5.92,9.88L23,41.08,8,27.48A19.45,19.45,0,0,1,2.05,17.6a11.45,11.45,0,0,1-.36-4.4c.56-6.33,5-11.63,11.23-11.63A10.87,10.87,0,0,1,23,8.55Z" transform="translate(-0.12 -0.07)"/><path id="rood_open" data-name="rood open" class="cls-2" d="M23,8.55a11.25,11.25,0,0,1,10.3-7c6.21,0,10.67,5.31,11.24,11.63a11.62,11.62,0,0,1-.37,4.4,19.44,19.44,0,0,1-5.92,9.88L23,41.08,8,27.48A19.45,19.45,0,0,1,2.05,17.6a11.45,11.45,0,0,1-.36-4.4c.56-6.33,5-11.63,11.23-11.63A10.87,10.87,0,0,1,23,8.55Z" transform="translate(-0.12 -0.07)"/><path id="rood_open-2" data-name="rood open" class="cls-3" d="M23,8.55a11.25,11.25,0,0,1,10.3-7c6.21,0,10.67,5.31,11.24,11.63a11.62,11.62,0,0,1-.37,4.4,19.44,19.44,0,0,1-5.92,9.88L23,41.08,8,27.48A19.45,19.45,0,0,1,2.05,17.6a11.45,11.45,0,0,1-.36-4.4c.56-6.33,5-11.63,11.23-11.63A10.87,10.87,0,0,1,23,8.55Z" transform="translate(-0.12 -0.07)"/></svg>